<svg width="101" height="101" viewBox="0 0 101 101" fill="none" xmlns="http://www.w3.org/2000/svg">
<g id="Camera">
<path id="Vector" d="M81.75 81.75H19.25C17.5924 81.75 16.0027 81.0915 14.8306 79.9194C13.6585 78.7473 13 77.1576 13 75.5V31.75C13 30.0924 13.6585 28.5027 14.8306 27.3306C16.0027 26.1585 17.5924 25.5 19.25 25.5H31.75L38 16.125H63L69.25 25.5H81.75C83.4076 25.5 84.9973 26.1585 86.1694 27.3306C87.3415 28.5027 88 30.0924 88 31.75V75.5C88 77.1576 87.3415 78.7473 86.1694 79.9194C84.9973 81.0915 83.4076 81.75 81.75 81.75Z" stroke="white" stroke-width="3" stroke-linecap="round" stroke-linejoin="round"/>
<path id="Vector_2" d="M50.5 66.125C58.2665 66.125 64.5625 59.829 64.5625 52.0625C64.5625 44.296 58.2665 38 50.5 38C42.7335 38 36.4375 44.296 36.4375 52.0625C36.4375 59.829 42.7335 66.125 50.5 66.125Z" stroke="white" stroke-width="3" stroke-linecap="round" stroke-linejoin="round"/>
</g>
</svg>
