<svg width="35" height="34" viewBox="0 0 35 34" fill="none" xmlns="http://www.w3.org/2000/svg">
<path fill-rule="evenodd" clip-rule="evenodd" d="M21.3401 11.6809L19.8576 11.6819C18.6951 11.6819 18.4696 12.2338 18.4696 13.0435V14.83H21.2426L20.8814 17.6289H18.4696V24.8087H15.5785V17.6289H13.1609V14.83H15.5785V12.767C15.5785 10.3715 17.0423 9.06794 19.1794 9.06794C20.2031 9.06794 21.0832 9.14369 21.3401 9.17813V11.6809ZM17.25 1.19757C8.55206 1.19757 1.5 8.2445 1.5 16.9383C1.5 25.6311 8.55206 32.6791 17.25 32.6791C25.9489 32.6791 33 25.6311 33 16.9383C33 8.2445 25.9489 1.19757 17.25 1.19757Z" fill="#BDC4CD"/>
</svg>
