<svg width="88" height="88" viewBox="0 0 88 88" fill="none" xmlns="http://www.w3.org/2000/svg">
<g id="Icon / Image">
<path id="Union" fill-rule="evenodd" clip-rule="evenodd" d="M9.23457 0H78.7654C83.8655 0 88 4.13445 88 9.23457V78.7654C88 83.8655 83.8655 88 78.7654 88H9.23457C4.13446 88 0 83.8655 0 78.7654V9.23457C0 4.13446 4.13445 0 9.23457 0ZM9.23457 5.97531C7.43453 5.97531 5.97531 7.43453 5.97531 9.23457V61.6357L18.9164 48.6945C22.1382 45.4727 27.3618 45.4727 30.5837 48.6946L36.5555 54.6664C37.6294 55.7403 39.3706 55.7403 40.4446 54.6664L60.1664 34.9445C63.3882 31.7227 68.6119 31.7227 71.8337 34.9446L82.0247 45.1356V9.23457C82.0247 7.43453 80.5655 5.97531 78.7654 5.97531H9.23457ZM5.97531 78.7654V69.4138L22.8055 52.5836C23.8794 51.5097 25.6206 51.5097 26.6946 52.5836L32.6664 58.5555C35.8882 61.7773 41.1119 61.7773 44.3337 58.5555L64.0555 38.8336C65.1294 37.7597 66.8706 37.7597 67.9446 38.8336L82.0247 52.9137V78.7654C82.0247 80.5655 80.5655 82.0247 78.7654 82.0247H9.23457C7.43453 82.0247 5.97531 80.5655 5.97531 78.7654ZM33 27.5C33 30.5376 30.5376 33 27.5 33C24.4624 33 22 30.5376 22 27.5C22 24.4624 24.4624 22 27.5 22C30.5376 22 33 24.4624 33 27.5ZM38.5 27.5C38.5 33.5751 33.5751 38.5 27.5 38.5C21.4249 38.5 16.5 33.5751 16.5 27.5C16.5 21.4249 21.4249 16.5 27.5 16.5C33.5751 16.5 38.5 21.4249 38.5 27.5Z" fill="black"/>
</g>
</svg>
