<svg width="35" height="34" viewBox="0 0 35 34" fill="none" xmlns="http://www.w3.org/2000/svg">
<path fill-rule="evenodd" clip-rule="evenodd" d="M17.5685 19.9761C19.2409 19.9761 20.5974 18.6243 20.5974 16.9558C20.5974 15.2883 19.2409 13.9366 17.5685 13.9366C15.896 13.9366 14.5395 15.2883 14.5395 16.9558C14.5395 18.6243 15.896 19.9761 17.5685 19.9761ZM21.0562 13.863H23.1854C23.4285 13.863 23.6264 13.6662 23.6264 13.4242V11.3002C23.6264 11.0582 23.4285 10.8614 23.1854 10.8614H21.0562C20.8131 10.8614 20.6152 11.0582 20.6152 11.3002V13.4242C20.6152 13.6662 20.8131 13.863 21.0562 13.863ZM25.4251 22.9414C25.4251 23.9725 24.5874 24.8087 23.5528 24.8087H11.5473C10.5137 24.8087 9.67505 23.9725 9.67505 22.9414V10.9342C9.67505 9.90318 10.5137 9.06794 11.5473 9.06794H23.5528C24.5874 9.06794 25.4251 9.90318 25.4251 10.9342V22.9414ZM17.5501 1.19757C8.85113 1.19757 1.80005 8.2445 1.80005 16.9383C1.80005 25.6311 8.85113 32.6791 17.5501 32.6791C26.249 32.6791 33.3001 25.6311 33.3001 16.9383C33.3001 8.2445 26.249 1.19757 17.5501 1.19757ZM22.3595 16.9562C22.3595 19.5898 20.2106 21.7335 17.5686 21.7335C14.9265 21.7335 12.7776 19.5898 12.7776 16.9562C12.7776 16.5194 12.8367 16.0954 12.9479 15.693H11.4743V22.5383C11.4743 22.7813 11.6712 22.978 11.9143 22.978H23.2218C23.466 22.978 23.6628 22.7813 23.6628 22.5383V15.693H22.1892C22.3005 16.0954 22.3595 16.5194 22.3595 16.9562Z" fill="#BDC4CD"/>
</svg>
