<svg width="35" height="34" viewBox="0 0 35 34" fill="none" xmlns="http://www.w3.org/2000/svg">
<path fill-rule="evenodd" clip-rule="evenodd" d="M25.325 24.7939H22.0618V19.69C22.0618 18.473 22.0401 16.9078 20.3657 16.9078C18.6676 16.9078 18.4087 18.234 18.4087 19.6034V24.7939H15.1485V14.2988H18.2768V15.7341H18.3221C18.7572 14.9087 19.8223 14.0381 21.4101 14.0381C24.7146 14.0381 25.325 16.2113 25.325 19.0377V24.7939ZM11.4689 12.8654C10.4205 12.8654 9.57495 12.0174 9.57495 10.9736C9.57495 9.92975 10.4205 9.08171 11.4689 9.08171C12.5123 9.08171 13.3599 9.92975 13.3599 10.9736C13.3599 12.0174 12.5123 12.8654 11.4689 12.8654ZM13.101 24.7939H9.83384V14.2988H13.101V24.7939ZM17.45 1.19757C8.75103 1.19757 1.69995 8.2445 1.69995 16.9383C1.69995 25.6311 8.75103 32.6791 17.45 32.6791C26.1489 32.6791 33.2 25.6311 33.2 16.9383C33.2 8.2445 26.1489 1.19757 17.45 1.19757Z" fill="#BDC4CD"/>
</svg>
