<svg width="101" height="101" viewBox="0 0 101 101" fill="none" xmlns="http://www.w3.org/2000/svg">
<g id="PaintBrush">
<path id="Vector" d="M8.3125 84.875H36.4375C40.4549 84.875 44.3821 83.6837 47.7225 81.4517C51.0629 79.2198 53.6664 76.0474 55.2038 72.3358C56.7412 68.6241 57.1435 64.54 56.3597 60.5997C55.5759 56.6595 53.6414 53.0402 50.8006 50.1994C47.9598 47.3586 44.3405 45.4241 40.4003 44.6403C36.46 43.8565 32.3759 44.2588 28.6642 45.7962C24.9526 47.3336 21.7802 49.9371 19.5483 53.2775C17.3163 56.6179 16.125 60.5451 16.125 64.5625C16.125 78.625 8.3125 84.875 8.3125 84.875Z" stroke="white" stroke-width="3" stroke-linecap="round" stroke-linejoin="round"/>
<path id="Vector_2" d="M44.4058 45.8906C51.9058 35.7734 70.9683 12.6094 88.3901 12.6094C88.3901 30.0312 65.2261 49.0938 55.1089 56.5938" stroke="white" stroke-width="3" stroke-linecap="round" stroke-linejoin="round"/>
<path id="Vector_3" d="M52.4531 35.8912C57.746 38.8783 62.1223 43.2546 65.1094 48.5475" stroke="white" stroke-width="3" stroke-linecap="round" stroke-linejoin="round"/>
</g>
</svg>
