<svg width="24" height="21" viewBox="0 0 24 21" fill="none" xmlns="http://www.w3.org/2000/svg">
<g id="&#240;&#159;&#166;&#134; icon &#34;bitcoin card&#34;">
<g id="Group">
<path id="Vector" d="M18.504 8.55552C18.504 8.29949 18.2247 7.97363 17.9221 7.97363H15.6644H15.1523V9.13741H17.9221C18.2363 9.13741 18.504 8.88138 18.504 8.55552Z" fill="#8B96A5"/>
<path id="Vector_2" d="M18.4342 10.8831H17.9105H15.1523V12.0468H15.6644H18.4342C18.8648 12.0468 19.2255 11.7792 19.2255 11.4649C19.2255 11.1507 18.8648 10.8831 18.4342 10.8831Z" fill="#8B96A5"/>
<path id="Vector_3" d="M19.0513 0H5.43512C2.77009 0 0.605469 2.15298 0.605469 4.81802V15.1988C0.605469 17.8639 2.77009 20.0168 5.43512 20.0168H19.0513C21.7163 20.0168 23.8809 17.8639 23.8809 15.1988V4.81802C23.8809 2.15298 21.7163 0 19.0513 0ZM9.04282 10.8812H4.38773C3.91058 10.8812 3.5149 10.4855 3.5149 10.0084C3.5149 9.53125 3.91058 9.13557 4.38773 9.13557H9.04282C9.51997 9.13557 9.91565 9.53125 9.91565 10.0084C9.91565 10.4855 9.51997 10.8812 9.04282 10.8812ZM18.4345 13.7907H17.2009V14.3725C17.2009 14.8497 16.8052 15.2454 16.328 15.2454C15.8509 15.2454 15.4552 14.8497 15.4552 14.3725V13.7907H14.2798H13.116C12.6389 13.7907 12.2432 13.395 12.2432 12.9178C12.2432 12.4407 12.6389 12.045 13.116 12.045H13.407V10.0084V7.97179H13.116C12.6389 7.97179 12.2432 7.57616 12.2432 7.09901C12.2432 6.62187 12.6389 6.22618 13.116 6.22618H14.2798H15.4552V5.6443C15.4552 5.16715 15.8509 4.77147 16.328 4.77147C16.8052 4.77147 17.2009 5.16715 17.2009 5.6443V6.22618H17.9108C19.156 6.22618 20.2383 7.30849 20.2383 8.55368C20.2383 8.93773 20.1336 9.2985 19.9706 9.62435C20.5758 10.0549 20.9715 10.7183 20.9715 11.4631C20.9715 12.7433 19.831 13.7907 18.4345 13.7907Z" fill="#8B96A5"/>
</g>
</g>
</svg>
