<svg width="23" height="23" viewBox="0 0 23 23" fill="none" xmlns="http://www.w3.org/2000/svg">
<g id="&#240;&#159;&#166;&#134; icon &#34;people&#34;">
<g id="Group">
<path id="Vector" d="M17.185 6.57718C17.109 6.56633 17.0331 6.56633 16.9572 6.57718C15.2757 6.52294 13.9414 5.14524 13.9414 3.45295C13.9414 1.72811 15.3408 0.317871 17.0765 0.317871C18.8013 0.317871 20.2116 1.71726 20.2116 3.45295C20.2007 5.14524 18.8664 6.52294 17.185 6.57718Z" fill="#8B96A5"/>
<path id="Vector_2" d="M20.725 14.0953C19.51 14.9089 17.8069 15.2126 16.2339 15.0065C16.6462 14.117 16.8631 13.1298 16.874 12.0884C16.874 11.0036 16.6353 9.97304 16.1797 9.07266C17.7852 8.8557 19.4883 9.15944 20.7142 9.97304C22.4281 11.1012 22.4281 12.9562 20.725 14.0953Z" fill="#8B96A5"/>
<path id="Vector_3" d="M5.15637 6.57718C5.23231 6.56633 5.30824 6.56633 5.38418 6.57718C7.06562 6.52294 8.39993 5.14524 8.39993 3.45295C8.39993 1.71726 7.00054 0.317871 5.26485 0.317871C3.54002 0.317871 2.14062 1.71726 2.14062 3.45295C2.14062 5.14524 3.47493 6.52294 5.15637 6.57718Z" fill="#8B96A5"/>
<path id="Vector_4" d="M5.27721 12.0886C5.27721 13.1409 5.50502 14.1389 5.91724 15.0393C4.38767 15.202 2.79301 14.8766 1.62143 14.1063C-0.0925591 12.9673 -0.0925591 11.1123 1.62143 9.97325C2.78217 9.1922 4.42022 8.87759 5.96063 9.05117C5.51586 9.96241 5.27721 10.993 5.27721 12.0886Z" fill="#8B96A5"/>
<path id="Vector_5" d="M11.32 15.3641C11.2332 15.3532 11.1356 15.3532 11.038 15.3641C9.04194 15.299 7.44727 13.6609 7.44727 11.6432C7.45811 9.58209 9.11788 7.9115 11.1899 7.9115C13.251 7.9115 14.9216 9.58209 14.9216 11.6432C14.9107 13.6609 13.3269 15.299 11.32 15.3641Z" fill="#8B96A5"/>
<path id="Vector_6" d="M7.79299 17.6103C6.15494 18.706 6.15494 20.5067 7.79299 21.5915C9.65887 22.8391 12.718 22.8391 14.5839 21.5915C16.2219 20.4959 16.2219 18.6951 14.5839 17.6103C12.7289 16.3628 9.66972 16.3628 7.79299 17.6103Z" fill="#8B96A5"/>
</g>
</g>
</svg>
