<svg width="101" height="101" viewBox="0 0 101 101" fill="none" xmlns="http://www.w3.org/2000/svg">
<g id="Swatches">
<path id="Vector" d="M14.8358 68.0778L24.2889 14.5231C24.355 14.1189 24.5008 13.7319 24.718 13.3846C24.9352 13.0374 25.2193 12.7368 25.5538 12.5005C25.8882 12.2642 26.2664 12.0968 26.6663 12.0081C27.0661 11.9195 27.4796 11.9113 27.8827 11.984L49.4452 15.7731C50.2598 15.9254 50.9822 16.3913 51.457 17.0707C51.9318 17.75 52.1211 18.5885 51.9842 19.4059L42.492 73.2731C41.842 76.9002 39.798 80.1289 36.7974 82.2679C33.7969 84.407 30.0782 85.2866 26.4373 84.7184C18.6639 83.4684 13.4686 75.8512 14.8358 68.0778Z" stroke="white" stroke-width="3" stroke-linecap="round" stroke-linejoin="round"/>
<path id="Vector_2" d="M46.7097 49.25L75.1863 38.8984C75.5734 38.7555 75.9851 38.6906 76.3974 38.7076C76.8098 38.7246 77.2147 38.8231 77.5887 38.9974C77.9628 39.1718 78.2987 39.4185 78.5769 39.7233C78.8551 40.0281 79.0702 40.385 79.2097 40.7734L86.7097 61.3203C86.9863 62.0974 86.9445 62.9524 86.5932 63.6988C86.242 64.4452 85.6099 65.0225 84.8347 65.3047L33.4285 84.0156" stroke="white" stroke-width="3" stroke-linecap="round" stroke-linejoin="round"/>
<path id="Vector_3" d="M86.4375 63.9766V81.75C86.4375 82.5788 86.1083 83.3737 85.5222 83.9597C84.9362 84.5458 84.1413 84.875 83.3125 84.875H28.625" stroke="white" stroke-width="3" stroke-linecap="round" stroke-linejoin="round"/>
<path id="Vector_4" d="M28.625 75.5C31.2138 75.5 33.3125 73.4013 33.3125 70.8125C33.3125 68.2237 31.2138 66.125 28.625 66.125C26.0362 66.125 23.9375 68.2237 23.9375 70.8125C23.9375 73.4013 26.0362 75.5 28.625 75.5Z" fill="white"/>
</g>
</svg>
