<svg width="35" height="34" viewBox="0 0 35 34" fill="none" xmlns="http://www.w3.org/2000/svg">
<path fill-rule="evenodd" clip-rule="evenodd" d="M23.6127 13.7282C23.6186 13.8669 23.6225 14.0056 23.6225 14.1463C23.6225 18.413 20.3721 23.334 14.4285 23.334C12.6034 23.334 10.9054 22.7998 9.4751 21.8839C9.72808 21.9134 9.985 21.9281 10.2459 21.9281C11.7598 21.9281 13.1527 21.4126 14.2592 20.5459C12.8446 20.5203 11.6515 19.5867 11.2401 18.3038C11.4379 18.3412 11.6397 18.3609 11.8484 18.3609C12.1428 18.3609 12.4282 18.3215 12.6999 18.2477C11.2214 17.9516 10.108 16.6461 10.108 15.0819C10.108 15.0681 10.108 15.0543 10.108 15.0406C10.5431 15.2826 11.0422 15.4282 11.5718 15.4449C10.7046 14.8655 10.1336 13.8767 10.1336 12.7572C10.1336 12.1649 10.2931 11.6101 10.5717 11.1329C12.1654 13.0867 14.5466 14.3726 17.232 14.5073C17.1768 14.2712 17.1483 14.0243 17.1483 13.7715C17.1483 11.9878 18.5953 10.5417 20.379 10.5417C21.3092 10.5417 22.1489 10.9342 22.7376 11.5619C23.4739 11.4172 24.1659 11.1487 24.79 10.7788C24.5488 11.5324 24.036 12.1649 23.3695 12.5653C24.0232 12.4866 24.6453 12.3135 25.2251 12.0567C24.792 12.7041 24.2437 13.2727 23.6127 13.7282ZM17.3501 1.19757C8.65117 1.19757 1.6001 8.2445 1.6001 16.9383C1.6001 25.6311 8.65117 32.6791 17.3501 32.6791C26.049 32.6791 33.1001 25.6311 33.1001 16.9383C33.1001 8.2445 26.049 1.19757 17.3501 1.19757Z" fill="#BDC4CD"/>
</svg>
