<svg width="20" height="18" viewBox="0 0 20 18" fill="none" xmlns="http://www.w3.org/2000/svg">
<path fill-rule="evenodd" clip-rule="evenodd" d="M1.04421 0.915624C1.71467 0.329471 2.6234 0.000167565 3.57092 0H17.1431C17.9009 0.000194545 18.6275 0.263865 19.1633 0.733027C19.699 1.20219 20 1.83843 20 2.50182V6.87892C20 7.22374 19.6799 7.50401 19.286 7.50401H17.5068V3.15186C17.5068 2.94463 17.4128 2.74589 17.2454 2.59935C17.078 2.45282 16.851 2.3705 16.6143 2.3705C16.3776 2.3705 16.1506 2.45282 15.9832 2.59935C15.8158 2.74589 15.7218 2.94463 15.7218 3.15186V7.50401H15.7134V9.59057H14.3616C13.9171 9.59057 13.4908 9.74517 13.1764 10.0203C12.8621 10.2955 12.6855 10.6688 12.6855 11.0579V11.7813H11.86C11.4155 11.7813 10.9892 11.9359 10.6749 12.2111C10.3605 12.4863 10.184 12.8595 10.184 13.2487V15.0021C10.184 15.4372 10.4002 15.8283 10.7438 16.0968L8.2246 17.4203C8.11347 17.4787 7.9863 17.5096 7.85669 17.5096C7.72709 17.5096 7.59992 17.4787 7.48879 17.4203L4.28494 15.738L1.08108 17.4203C0.972775 17.4772 0.849192 17.5078 0.722933 17.5092C0.596674 17.5106 0.472255 17.4826 0.362362 17.4282C0.252468 17.3737 0.161032 17.2948 0.0973748 17.1993C0.0337179 17.1038 0.000117653 16.9953 0 16.8848V3.12691C0 2.29786 0.374607 1.50256 1.04421 0.915624ZM5.64174 3.40644C5.64174 3.26051 5.57551 3.12055 5.45764 3.01735C5.33977 2.91416 5.1799 2.85619 5.0132 2.85619C4.8465 2.85619 4.68663 2.91416 4.56876 3.01735C4.45088 3.12055 4.38466 3.26051 4.38466 3.40644V4.21495L4.36036 4.21642C4.1206 4.23002 3.8853 4.27966 3.66478 4.36315C3.4 4.46675 3.18191 4.64426 3.04463 4.86792C2.90216 5.09976 2.84936 5.36608 2.84936 5.64708C2.84936 6.20027 3.17955 6.59352 3.55584 6.86791C3.89943 7.11956 4.34025 7.31178 4.69977 7.46952L4.73245 7.48346C5.13472 7.65955 5.44647 7.79894 5.66688 7.96035C5.86717 8.10635 5.9208 8.21714 5.9208 8.33526C5.9208 8.50254 5.88728 8.57224 5.87555 8.59204V8.59351C5.86968 8.60231 5.86549 8.60818 5.837 8.61992C5.74738 8.64966 5.65286 8.66651 5.55709 8.66981C5.37606 8.68028 5.1946 8.6842 5.0132 8.68155C4.63273 8.68155 4.3788 8.62799 4.24136 8.55903C4.20049 8.54112 4.16578 8.51403 4.14079 8.48053C4.11477 8.43566 4.10318 8.38545 4.10727 8.33526C4.10727 8.18932 4.04105 8.04936 3.92318 7.94617C3.8053 7.84298 3.64543 7.785 3.47873 7.785C3.31204 7.785 3.15217 7.84298 3.03429 7.94617C2.91642 8.04936 2.8502 8.18932 2.8502 8.33526C2.8502 8.87451 3.14687 9.27729 3.61282 9.5128C3.84831 9.63093 4.11398 9.70136 4.38466 9.74024V10.5766C4.38466 10.7226 4.45088 10.8625 4.56876 10.9657C4.68663 11.0689 4.8465 11.1269 5.0132 11.1269C5.1799 11.1269 5.33977 11.0689 5.45764 10.9657C5.57551 10.8625 5.64174 10.7226 5.64174 10.5766V9.76739L5.66688 9.76592C5.88225 9.74978 6.12948 9.71383 6.36246 9.61919C6.62706 9.51535 6.84508 9.3379 6.98261 9.11442C7.12508 8.88258 7.17788 8.61626 7.17788 8.33526C7.17788 7.78207 6.84769 7.38882 6.4714 7.11443C6.12696 6.86351 5.68699 6.67055 5.32663 6.51281L5.29478 6.49888C4.89252 6.32279 4.58077 6.1834 4.36036 6.02199C4.16007 5.87672 4.10643 5.7652 4.10643 5.64708C4.10643 5.4798 4.13995 5.4101 4.15169 5.3903C4.15755 5.38076 4.16174 5.37489 4.19024 5.36242C4.27964 5.333 4.37387 5.31641 4.46931 5.31326C4.61764 5.30152 4.78776 5.30152 4.99979 5.30152H5.0132H5.02577C5.35848 5.30299 5.6124 5.37122 5.76325 5.45559C5.90153 5.53263 5.9208 5.59792 5.9208 5.64708C5.9208 5.79302 5.98703 5.93298 6.1049 6.03617C6.22277 6.13936 6.38264 6.19734 6.54934 6.19734C6.71604 6.19734 6.87591 6.13936 6.99378 6.03617C7.11166 5.93298 7.17788 5.79302 7.17788 5.64708C7.17788 5.14085 6.85355 4.75787 6.43704 4.52603C6.193 4.39396 5.92349 4.30197 5.64174 4.25457V3.40644ZM9.18751 7.45632C9.18751 7.31038 9.25373 7.17042 9.37161 7.06723C9.48948 6.96404 9.64935 6.90606 9.81605 6.90606H11.6732C11.8399 6.90606 11.9997 6.96404 12.1176 7.06723C12.2355 7.17042 12.3017 7.31038 12.3017 7.45632C12.3017 7.60225 12.2355 7.74221 12.1176 7.84541C11.9997 7.9486 11.8399 8.00657 11.6732 8.00657H9.81605C9.64935 8.00657 9.48948 7.9486 9.37161 7.84541C9.25373 7.74221 9.18751 7.60225 9.18751 7.45632ZM9.81605 4.50842C9.64935 4.50842 9.48948 4.56639 9.37161 4.66959C9.25373 4.77278 9.18751 4.91274 9.18751 5.05868C9.18751 5.20461 9.25373 5.34457 9.37161 5.44776C9.48948 5.55096 9.64935 5.60893 9.81605 5.60893H12.8917C13.0584 5.60893 13.2183 5.55096 13.3361 5.44776C13.454 5.34457 13.5202 5.20461 13.5202 5.05868C13.5202 4.91274 13.454 4.77278 13.3361 4.66959C13.2183 4.56639 13.0584 4.50842 12.8917 4.50842H9.81605ZM14.3608 10.6918H16.3637C16.4748 10.6918 16.5814 10.7305 16.66 10.7993C16.7386 10.8681 16.7827 10.9614 16.7827 11.0587V12.8826H18.8661C18.9773 12.8826 19.0838 12.9212 19.1624 12.99C19.241 13.0588 19.2851 13.1521 19.2851 13.2494V15.0029C19.2851 15.1002 19.241 15.1935 19.1624 15.2623C19.0838 15.3311 18.9773 15.3697 18.8661 15.3697H16.7836V17.1922C16.7836 17.2894 16.7394 17.3828 16.6608 17.4516C16.5823 17.5203 16.4757 17.559 16.3646 17.559H14.3616C14.2505 17.559 14.1439 17.5203 14.0653 17.4516C13.9867 17.3828 13.9426 17.2894 13.9426 17.1922V15.369H11.8592C11.7481 15.369 11.6415 15.3303 11.5629 15.2615C11.4843 15.1927 11.4402 15.0994 11.4402 15.0021V13.2487C11.4402 13.1514 11.4843 13.0581 11.5629 12.9893C11.6415 12.9205 11.7481 12.8818 11.8592 12.8818H13.9418V11.0579C13.9418 10.9606 13.9859 10.8673 14.0645 10.7985C14.1431 10.7297 14.2496 10.6911 14.3608 10.6911V10.6918Z" fill="#8B96A5"/>
</svg>
