<svg width="35" height="34" viewBox="0 0 35 34" fill="none" xmlns="http://www.w3.org/2000/svg">
<path fill-rule="evenodd" clip-rule="evenodd" d="M25.5249 17.5325C25.5249 18.8065 25.3674 20.0806 25.3674 20.0806C25.3674 20.0806 25.2138 21.1647 24.7413 21.6428C24.1428 22.2695 23.4715 22.2725 23.1634 22.3089C20.9594 22.4682 17.6499 22.4732 17.6499 22.4732C17.6499 22.4732 13.5549 22.4358 12.2949 22.3157C11.9445 22.2498 11.157 22.2695 10.5585 21.6428C10.086 21.1647 9.9324 20.0806 9.9324 20.0806C9.9324 20.0806 9.7749 18.8065 9.7749 17.5325V16.3382C9.7749 15.0642 9.9324 13.7911 9.9324 13.7911C9.9324 13.7911 10.086 12.706 10.5585 12.2279C11.157 11.6012 11.8283 11.5983 12.1364 11.5619C14.3404 11.4025 17.647 11.4025 17.647 11.4025H17.6529C17.6529 11.4025 20.9594 11.4025 23.1634 11.5619C23.4715 11.5983 24.1428 11.6012 24.7413 12.2279C25.2138 12.706 25.3674 13.7911 25.3674 13.7911C25.3674 13.7911 25.5249 15.0642 25.5249 16.3382V17.5325ZM17.6499 1.19757C8.95098 1.19757 1.8999 8.2445 1.8999 16.9383C1.8999 25.6311 8.95098 32.6791 17.6499 32.6791C26.3488 32.6791 33.3999 25.6311 33.3999 16.9383C33.3999 8.2445 26.3488 1.19757 17.6499 1.19757ZM16.0239 18.9797L20.2794 16.776L16.0229 14.5565L16.0239 18.9797Z" fill="#BDC4CD"/>
</svg>
